<?xml version="1.0" encoding="UTF-8"?>
<svg id="Layer_1" xmlns="http://www.w3.org/2000/svg" version="1.1" xmlns:xlink="http://www.w3.org/1999/xlink" viewBox="0 0 827.3 255.4">
  <!-- Generator: Adobe Illustrator 29.6.1, SVG Export Plug-In . SVG Version: 2.1.1 Build 9)  -->
  <defs>
    <style>
      .st0 {
        fill: #babcbe;
      }

      .st0, .st1, .st2, .st3, .st4, .st5, .st6, .st7, .st8, .st9 {
        fill-rule: evenodd;
      }

      .st1 {
        fill: #434443;
      }

      .st10 {
        fill: #fff;
      }

      .st2 {
        fill: #fefefe;
      }

      .st3 {
        fill: #6f706f;
      }

      .st4 {
        fill: #22201e;
      }

      .st6 {
        fill: #333;
      }

      .st7 {
        fill: #4c4c4c;
      }

      .st8 {
        fill: #232323;
      }

      .st9 {
        fill: url(#linear-gradient);
      }

      .st11 {
        fill: #ff7800;
      }
    </style>
    <linearGradient id="linear-gradient" x1="364.2" y1="47.7" x2="461.6" y2="47.7" gradientUnits="userSpaceOnUse">
      <stop offset="0" stop-color="#904828"/>
      <stop offset="0" stop-color="#924b2c"/>
      <stop offset="0" stop-color="#985538"/>
      <stop offset=".1" stop-color="#a3674d"/>
      <stop offset=".1" stop-color="#b18069"/>
      <stop offset=".2" stop-color="#c59f8e"/>
      <stop offset=".2" stop-color="#dcc6bc"/>
      <stop offset=".2" stop-color="#f7f3f1"/>
      <stop offset=".2" stop-color="#fff"/>
      <stop offset=".3" stop-color="#ffead8"/>
      <stop offset=".3" stop-color="#ffd2ab"/>
      <stop offset=".3" stop-color="#ffbd82"/>
      <stop offset=".3" stop-color="#ffaa5f"/>
      <stop offset=".3" stop-color="#ff9a41"/>
      <stop offset=".3" stop-color="#ff8d29"/>
      <stop offset=".4" stop-color="#ff8416"/>
      <stop offset=".4" stop-color="#ff7d09"/>
      <stop offset=".4" stop-color="#ff7902"/>
      <stop offset=".5" stop-color="#ff7800"/>
      <stop offset=".5" stop-color="#fe7903"/>
      <stop offset=".6" stop-color="#fe7e0c"/>
      <stop offset=".6" stop-color="#fd861d"/>
      <stop offset=".7" stop-color="#fb9134"/>
      <stop offset=".7" stop-color="#f9a052"/>
      <stop offset=".7" stop-color="#f7b276"/>
      <stop offset=".7" stop-color="#f4c8a2"/>
      <stop offset=".8" stop-color="#f0e0d3"/>
      <stop offset=".8" stop-color="#efeeee"/>
      <stop offset=".8" stop-color="#e8e2e0"/>
      <stop offset=".8" stop-color="#d3beb5"/>
      <stop offset=".8" stop-color="#c19e8f"/>
      <stop offset=".8" stop-color="#b2836f"/>
      <stop offset=".9" stop-color="#a56d55"/>
      <stop offset=".9" stop-color="#9b5c41"/>
      <stop offset=".9" stop-color="#955132"/>
      <stop offset=".9" stop-color="#914a2a"/>
      <stop offset="1" stop-color="#904828"/>
    </linearGradient>
  </defs>
  <g>
    <path class="st11" d="M510.7,160.6c0-6.7,0-13.3,0-20-.1-5.9,2.4-9.3,8.6-8.9,10.4.7,20.8-.7,31.5,1.7,4.6,1,11.2-1.8,17.1-1.7,15.8,0,22,6.3,22,22.1,0,9.2-.3,18.4.1,27.6.2,5.2-2,6-6.4,5.9-4-.1-7,0-6.7-5.6.5-9.2.2-18.4.1-27.6,0-7.5-9.1-12.4-15.6-8.5-2.1,1.3-1,3.3-1,5,0,10.6-.2,21.2.2,31.7.2,6.4-4,4.7-7.4,4.9-3.5.2-6.8.8-6.5-5,.5-9.6,0-19.3.2-29,.1-5.4-1.6-8-7.5-8-15.2-.2-15.2-.4-15.2,15,0,6.7-.3,13.3,0,20,.3,5.1-.9,7.3-6.7,7.2-5.1-.2-7.4-1.1-7-6.8.5-6.6.1-13.3.1-20Z"/>
    <path class="st11" d="M344.7,141.2c0,8.5,0,17,0,25.5-.1,13.5-6.9,20.4-20.3,20.5-7.6,0-15.2.1-22.7,0-10.6-.2-17.8-6.9-18.4-17.5-.4-6.9-.4-13.8,0-20.7.6-9.8,7.4-16.6,17.4-17.1,7.1-.4,14.2,0,21.4-.2,5.2-.2,4,3.5,3.7,6.1-.3,2.8,2.6,7.6-3.6,7.6-6.2,0-12.4.2-18.6,0-5.1-.2-7,2.1-6.9,7,.5,25.5-3.6,21,20.7,21.3,14,.2,14,0,14-13.8,0-15.4.3-30.8-.1-46.2-.2-5.7,2.7-5.6,6.7-5.5,3.9,0,7.2-.4,6.9,5.4-.5,9.2-.1,18.4-.1,27.6Z"/>
    <path class="st11" d="M463.6,187c-4.8,0-9.7.4-14.5,0-9.4-.8-15.8-8-16-17.5-.2-9.7,5.7-17.1,14.9-18.6,7.8-1.2,15.6-.5,23.4-.7,5.6-.1,3.6,4.2,3.8,6.9.2,2.7,1.2,6.3-3.9,6.2-6.2-.2-12.4,0-18.6,0-4,0-6.9,1.4-6.7,5.9.2,4.1,3.1,5.3,6.7,5.3,7.1,0,14.2-.1,21.4,0,4.6,0,6.8-2.3,6.9-6.6.1-5.5,0-11,0-16.5,0-4.9-2.7-7-7.4-6.9-7.6,0-15.2-.3-22.7.2-5.8.4-4.8-3.2-4.9-6.6-.1-3.6-.5-6.7,5.1-6.4,8,.5,16.1,0,24.1.1,10.7.2,17.9,6.8,18.5,17.4.4,6.9.5,13.8.1,20.7-.5,10.3-7.5,16.9-17.7,17.3-4.1.2-8.3,0-12.4,0,0,0,0,0,0,0Z"/>
    <path class="st11" d="M636.6,131.8c4.4,0,8.7-.2,13.1,0,10.1.5,17,7.3,17.5,16.9.6,10.8-5.2,18.5-15.8,19.7-7.5.8-15.1.6-22.7.4-5.6-.1-2.9-4.7-3.3-7.3-.3-2.6-.8-5.8,3.7-5.7,6.2.1,12.4,0,18.6,0,3.9,0,7-1.1,6.9-5.7,0-4.6-3.4-5.5-7.2-5.6-6.9,0-13.8,0-20.7,0-4.8,0-7.2,2.4-7.2,7.2-.1,27.4-2.3,22.5,21,22.9,9.1.1,8.9,0,8.8,8.2,0,3.8-1.5,4.7-4.9,4.6-6.4-.2-12.9,0-19.3-.1-10.8-.3-17.6-6.8-18.3-17.5-.4-6.2-.2-12.4,0-18.6.3-12.1,7.4-19.1,19.5-19.3,3.4,0,6.9,0,10.3,0h0Z"/>
    <path class="st11" d="M380,161.9c-.3-2.9-.8-6.2,4.1-6,6,.2,12,0,17.9,0,4.1,0,7.6-1.1,7.4-6-.2-4.5-3.7-5.3-7.4-5.3-6.7,0-13.3.1-20,0-5.1,0-7.7,2.3-7.8,7.4,0,5.1,0,10.1,0,15.2,0,5.1,2.4,7.6,7.6,7.5,6-.1,12,.2,17.9-.2,5.2-.4,4.7,2.8,4.7,6.1,0,3.4.8,7-4.9,6.7-6.9-.4-13.8.2-20.7-.2-9.9-.5-16.7-7.4-17.1-17.3-.3-6.4-.2-12.9,0-19.3.2-11.3,7.3-18.4,18.6-18.7,3.9-.1,7.8,0,11.7,0,4.1,0,8.3-.2,12.4,0,10.3.6,17.5,7.6,17.9,17.4.4,9.9-5.9,18-16,19.1-7.5.8-15.2.5-22.7.6-5.6,0-3.3-4.4-3.6-7.1"/>
    <path class="st11" d="M199.7,166.5c7.2-14.6,14-28.6,20.9-42.6q5.5-11.2,19-9.8c-1.9,7.4-6.1,13.7-9.3,20.5-7.6,15.9-15.5,31.7-23.3,47.5-1.6,3.2-3.2,6.3-7.4,6.2-4.1,0-5.8-3.2-7.4-6.3-9.8-20-19.6-39.9-29.2-60-1.2-2.4-4.9-5.3-1.5-8.1,2.9-2.4,12.5.2,14,3.2,7,14.2,13.9,28.4,20.8,42.6,1,2,2,4.1,3.4,6.8Z"/>
    <path class="st11" d="M265.4,159.5c0,7.8-.2,15.6,0,23.4.2,5.5-3.5,4.4-6.5,4.3-3-.1-7.2,1.7-7.2-4.3.2-15.6.2-31.2,0-46.9,0-6.2,4.3-4,7.2-4.2,3-.2,6.6-1.3,6.4,4.2-.3,7.8,0,15.6,0,23.4Z"/>
    <path class="st11" d="M259.1,108.4c4.8-1,6.6.5,6.6,6,0,5.5-2,6.4-6.8,6.3-5,0-7.3-.9-7.3-6.7,0-6.1,3.1-6.1,7.4-5.6Z"/>
    <g>
      <path class="st10" d="M242.7,234.3c0-2.9,2.4-4.3,8.5-4.7-.1-1.2-1-1.9-2.8-1.9s-2.5.5-3.9,1.2l-1.4-2.5c1.8-1,3.8-1.7,6-1.7,3.6,0,5.8,1.9,5.8,5.8v7.4h-3.1l-.3-1.5h-.1c-1.3,1-2.9,1.8-4.6,1.8-2.6,0-4.2-1.7-4.2-3.9ZM251.2,234v-2.1c-3.8.2-4.8,1-4.8,2.1s.7,1.2,1.8,1.2,2.1-.5,3-1.2Z"/>
      <path class="st10" d="M270.2,232.9v-8h3.8v7.5c0,1.7.4,2.5,1.9,2.5s1.6-.3,2.5-1.5v-8.5h3.8v12.9h-3.1l-.3-1.8h-.1c-1.1,1.3-2.5,2.2-4.3,2.2-2.9,0-4.2-2-4.2-5.3Z"/>
      <path class="st10" d="M297.3,231.4c0-4.2,2.7-6.8,5.5-6.8s2.4.5,3.2,1.4h.1l-.2-2v-4.4h3.8v18.2h-3.1l-.3-1.3h0c-1,.9-2.3,1.6-3.6,1.6-3.3,0-5.4-2.5-5.4-6.8ZM305.9,233.9v-5.2c-.7-.6-1.4-.9-2.2-.9-1.4,0-2.6,1.1-2.6,3.6s.9,3.7,2.5,3.7,1.6-.3,2.3-1.2Z"/>
      <path class="st10" d="M330.7,228h-5.2v-3h9v12.9h-3.8v-9.9ZM329.9,220.6c0-1.4,1.1-2.4,2.5-2.4s2.5,1,2.5,2.4-1.1,2.3-2.5,2.3-2.5-.9-2.5-2.3Z"/>
      <path class="st10" d="M352.2,231.4c0-4.3,3.2-6.8,6.6-6.8s6.6,2.5,6.6,6.8-3.2,6.8-6.6,6.8-6.6-2.5-6.6-6.8ZM361.4,231.4c0-2.2-.9-3.7-2.7-3.7s-2.7,1.4-2.7,3.7.9,3.7,2.7,3.7,2.7-1.4,2.7-3.7Z"/>
      <path class="st10" d="M379.2,225h3.8l2,6.1c.4,1.3.8,2.6,1.2,4h.1c.4-1.4.7-2.7,1.1-4l2-6.1h3.7l-4.7,12.9h-4.4l-4.9-12.9Z"/>
      <path class="st10" d="M413.1,228h-5.2v-3h9v12.9h-3.8v-9.9ZM412.3,220.6c0-1.4,1.1-2.4,2.5-2.4s2.5,1,2.5,2.4-1.1,2.3-2.5,2.3-2.5-.9-2.5-2.3Z"/>
      <path class="st10" d="M434.7,236.2l1.6-2.4c1.6,1,3.4,1.5,5.2,1.5s2.1-.5,2.1-1.1-.7-1-3.2-1.5c-3.5-.8-4.9-2-4.9-4s2.3-4,5.9-4,4.2.9,5.6,1.8l-1.7,2.3c-1.3-.8-2.8-1.2-4.2-1.2s-1.8.4-1.8,1,.8.9,3,1.4c4,.9,5.1,2,5.1,4.1s-2.2,4.2-6.3,4.2-4.7-.9-6.3-2Z"/>
      <path class="st10" d="M462.4,232.9v-8h3.8v7.5c0,1.7.4,2.5,1.9,2.5s1.6-.3,2.5-1.5v-8.5h3.8v12.9h-3.1l-.3-1.8h-.1c-1.1,1.3-2.5,2.2-4.3,2.2-2.9,0-4.2-2-4.2-5.3Z"/>
      <path class="st10" d="M489.8,234.3c0-2.9,2.4-4.3,8.5-4.7-.1-1.2-1-1.9-2.8-1.9s-2.5.5-3.9,1.2l-1.4-2.5c1.8-1,3.8-1.7,6-1.7,3.6,0,5.8,1.9,5.8,5.8v7.4h-3.1l-.3-1.5h-.1c-1.3,1-2.9,1.8-4.6,1.8-2.6,0-4.2-1.7-4.2-3.9ZM498.3,234v-2.1c-3.8.2-4.8,1-4.8,2.1s.7,1.2,1.8,1.2,2.1-.5,3-1.2Z"/>
      <path class="st10" d="M521,232.8v-10.2h-3.8v-3h7.6v13.3c0,1.6,1,2.1,2.1,2.1s1.2-.1,2-.4l.9,2.8c-1.4.4-2.3.7-3.9.7-3.2,0-4.9-2.1-4.9-5.4Z"/>
      <path class="st10" d="M544.6,231.4c0-4.2,3.2-6.8,6.7-6.8s6.1,2.7,6.1,6.2-.1,1.4-.2,1.7h-8.8c.4,1.9,1.7,2.7,3.8,2.7s2.2-.3,3.3-.9l1.3,2.3c-1.5.9-3.4,1.5-5.1,1.5-4,0-7.2-2.5-7.2-6.8ZM548.4,230h5.5c-.2-1.6-1.1-2.4-2.5-2.4s-2.6.8-3,2.4Z"/>
      <path class="st10" d="M572,236.2l1.6-2.4c1.6,1,3.4,1.5,5.2,1.5s2.1-.5,2.1-1.1-.7-1-3.2-1.5c-3.5-.8-4.9-2-4.9-4s2.3-4,5.9-4,4.2.9,5.6,1.8l-1.7,2.3c-1.3-.8-2.8-1.2-4.2-1.2s-1.8.4-1.8,1,.8.9,3,1.4c4,.9,5.1,2,5.1,4.1s-2.2,4.2-6.3,4.2-4.7-.9-6.3-2Z"/>
    </g>
    <g>
      <path class="st5" d="M440,8c-15.8-10.6-36.9-10.6-52.7,0-39.1,26.2-20.3,87,26.3,87s65.5-60.8,26.4-87ZM413.7,85.7c-37.6,0-52.7-48.9-21.2-70.1,12.7-8.5,29.7-8.6,42.4,0,31.5,21.2,16.3,70.1-21.2,70.1Z"/>
      <path class="st8" d="M392,15c-32.1,21.5-16.7,71.5,21.6,71.5s53.7-49.9,21.6-71.5c-13-8.7-30.3-8.7-43.3,0h0Z"/>
      <path class="st1" d="M394.6,18.9c-28.3,19-14.7,63.1,19.1,63.1s47.4-44,19.1-63.1c-11.4-7.7-26.7-7.7-38.2,0h0Z"/>
      <path class="st7" d="M398.4,24.6c-22.6,15.2-11.8,50.4,15.3,50.4s37.9-35.2,15.3-50.4c-9.2-6.1-21.4-6.1-30.5,0h0Z"/>
      <path class="st6" d="M399.8,26.7c-20.6,13.8-10.7,45.8,13.9,45.8s34.5-32,13.9-45.8c-8.3-5.6-19.4-5.6-27.7,0h0Z"/>
      <path class="st4" d="M405.4,35.1c-12.3,8.2-6.4,27.4,8.3,27.4s20.6-19.1,8.3-27.4c-5-3.3-11.6-3.3-16.6,0h0Z"/>
      <path class="st0" d="M404.2,42.5c-5.8-3.9-3-12.9,3.9-12.9s9.7,9,3.9,12.9c-2.3,1.6-5.5,1.6-7.8,0h0Z"/>
      <path class="st2" d="M420.4,62.2c-2.9-1.9-1.5-6.4,1.9-6.4s4.8,4.4,1.9,6.4c-1.1.8-2.7.8-3.8,0h0Z"/>
    </g>
  </g>
  <g>
    <path class="st9" d="M439.9,7.2c-16.3-11-37.8-11-54.1,0-40,26.9-20.8,89.2,27.1,89.2s67.1-62.3,27.1-89.2ZM412.9,86.9c-38.5,0-54-50.1-21.7-71.9,13-8.7,30.4-8.7,43.5.1,32.3,21.6,16.7,71.7-21.7,71.7Z"/>
    <path class="st3" d="M390.7,14.4c-32.9,22.1-17.1,73.3,22.1,73.3s55-51.1,22.1-73.3c-13.2-8.9-31.1-8.9-44.3,0h0Z"/>
    <path class="st1" d="M393.3,18.4c-29,19.5-15.1,64.7,19.6,64.7s48.6-45.1,19.6-64.7c-11.8-7.9-27.4-7.9-39.2,0h0Z"/>
    <path class="st7" d="M397.2,24.2c-23.2,15.6-12,51.7,15.7,51.7s38.8-36.1,15.7-51.7c-9.4-6.3-21.9-6.3-31.4,0h0Z"/>
    <path class="st6" d="M398.6,26.4c-21,14.1-11,46.9,14.2,46.9s35.4-32.8,14.2-46.9c-8.5-5.7-20-5.7-28.5,0h0Z"/>
    <path class="st4" d="M404.3,35c-12.6,8.4-6.6,28.1,8.5,28.1s21.1-19.6,8.5-28.1c-5.1-3.5-11.9-3.5-17,0h0Z"/>
    <path class="st0" d="M403.2,42.6c-5.9-4-3.1-13.2,4-13.2s9.9,9.2,4,13.2c-2.4,1.5-5.6,1.5-8,0h0Z"/>
    <path class="st2" d="M419.7,62.8c-3-1.9-1.5-6.6,1.9-6.6s4.9,4.5,1.9,6.6c-1.1.8-2.8.8-3.9,0h0Z"/>
  </g>
</svg>